# xmcd CD database file
#
# Track frame offsets:
#	150
#	12872
#	25824
#	37917
#	46470
#	59796
#	70670
#	82216
#	93533
#	105082
#	117211
#	127281
#
# Disc length: 1864 seconds
#
# Revision: 0
# Processed by: cddbd v1.4PL0 Copyright (c) Steve Scherf et al.
# Submitted via: CDex 1.50
#
DISCID=9f07460c
DTITLE=Sony Boy Williamson - The Real Folk Blues (Remastered)
DYEAR=2002
DGENRE=Blues
TTITLE0=One Way Out
TTITLE1=Too Young to die
TTITLE2=Trust My Baby
TTITLE3=Checkin' Up on My Baby
TTITLE4=Sad to Be Alone
TTITLE5=Got to Move
TTITLE6=Bring It on Home
TTITLE7=Down Child
TTITLE8=Peach Tree
TTITLE9=Dissatisfied
TTITLE10=That's All I Want
TTITLE11=Too Old to Think
EXTD=YEAR: 2002
EXTT0=
EXTT1=
EXTT2=
EXTT3=
EXTT4=
EXTT5=
EXTT6=
EXTT7=
EXTT8=
EXTT9=
EXTT10=
EXTT11=
PLAYORDER=
